<?xml version="1.0" standalone="no"?>
<!DOCTYPE svg PUBLIC "-//W3C//DTD SVG 20010904//EN"
 "http://www.w3.org/TR/2001/REC-SVG-20010904/DTD/svg10.dtd">
<svg version="1.0" xmlns="http://www.w3.org/2000/svg"
 width="920.000000pt" height="980.000000pt" viewBox="0 0 920.000000 980.000000"
 preserveAspectRatio="xMidYMid meet">

<g transform="translate(0.000000,980.000000) scale(0.100000,-0.100000)"
fill="#ffffff" stroke="none">
<path d="M4357 9790 c-305 -26 -632 -106 -904 -221 -365 -154 -682 -367 -963
-649 -491 -490 -786 -1111 -860 -1809 -15 -135 -15 -457 0 -595 34 -335 132
-685 273 -978 66 -138 516 -869 1555 -2524 l50 -81 -131 -17 c-500 -66 -974
-201 -1346 -384 -437 -216 -706 -474 -813 -783 -32 -91 -33 -99 -33 -254 0
-189 12 -241 85 -391 208 -422 777 -745 1655 -937 822 -181 1894 -215 2825
-91 1238 165 2047 581 2228 1144 45 138 55 302 28 443 -83 432 -513 788 -1236
1026 -105 34 -420 121 -442 121 -5 0 -479 -751 -522 -827 -4 -8 12 -15 51 -23
468 -91 963 -268 1163 -415 l64 -48 -43 -38 c-231 -205 -916 -410 -1621 -483
-390 -41 -977 -53 -1335 -27 -677 48 -1241 168 -1654 350 -112 50 -251 134
-290 175 l-23 24 57 45 c234 184 820 370 1430 456 163 23 375 45 379 40 1 -2
139 -228 306 -501 167 -274 306 -498 309 -498 6 0 2442 4040 2591 4295 199
341 336 763 381 1175 16 145 15 472 0 610 -82 707 -373 1314 -865 1805 -474
472 -1066 763 -1731 850 -146 19 -471 27 -618 15z m459 -1385 c526 -90 949
-513 1039 -1039 21 -126 20 -332 -4 -453 -34 -173 -91 -313 -186 -458 -196
-299 -500 -499 -852 -560 -111 -19 -317 -19 -429 0 -527 92 -947 513 -1039
1041 -19 111 -19 317 0 427 92 527 509 949 1030 1041 108 19 331 20 441 1z"/>
</g>
</svg>
