<?xml version="1.0" standalone="no"?>
<!DOCTYPE svg PUBLIC "-//W3C//DTD SVG 20010904//EN"
 "http://www.w3.org/TR/2001/REC-SVG-20010904/DTD/svg10.dtd">
<svg version="1.0" xmlns="http://www.w3.org/2000/svg"
 width="189.000000pt" height="40.000000pt" viewBox="0 0 189.000000 40.000000"
 preserveAspectRatio="xMidYMid meet">

<g transform="translate(0.000000,40.000000) scale(0.100000,-0.100000)"
fill="#ffffff" stroke="none">
<path d="M1240 371 c-76 -24 -110 -77 -110 -171 0 -70 16 -115 54 -150 23 -21
39 -25 99 -28 90 -4 129 17 159 85 16 37 19 60 15 111 -5 67 -22 100 -68 134
-28 20 -112 31 -149 19z m121 -90 c18 -22 20 -37 17 -95 -3 -57 -8 -72 -27
-87 -29 -24 -82 -24 -110 -2 -43 35 -46 148 -6 193 32 36 95 31 126 -9z"/>
<path d="M70 195 l0 -175 35 0 35 0 1 128 1 127 41 -128 41 -128 35 3 34 3 43
125 42 125 1 -127 1 -128 35 0 35 0 0 176 0 175 -52 -3 -52 -3 -40 -122 c-22
-68 -43 -123 -47 -123 -3 0 -23 56 -44 125 l-39 125 -53 0 -53 0 0 -175z"/>
<path d="M540 195 l0 -175 100 0 100 0 0 30 0 30 -65 0 -65 0 0 45 0 45 60 0
c60 0 60 0 60 30 0 28 -1 29 -57 32 l-58 3 -3 38 -3 37 65 0 66 0 0 30 0 30
-100 0 -100 0 0 -175z"/>
<path d="M820 195 l0 -175 35 0 34 0 3 67 c4 94 23 95 79 4 42 -68 45 -71 81
-71 21 0 38 2 38 5 0 3 -21 37 -47 76 -42 63 -45 72 -30 80 21 12 47 61 47 89
0 37 -28 77 -61 89 -18 6 -65 11 -105 11 l-74 0 0 -175z m148 103 c17 -17 15
-65 -4 -72 -9 -3 -29 -6 -45 -6 -28 0 -29 2 -29 45 0 44 1 45 33 45 18 0 38
-5 45 -12z"/>
<path d="M1530 195 l0 -175 36 0 36 0 -4 129 c-2 71 -1 127 2 125 3 -3 37 -60
75 -127 l71 -122 47 -3 47 -3 0 175 0 176 -30 0 -30 0 0 -132 0 -133 -76 133
-77 132 -48 0 -49 0 0 -175z"/>
</g>
</svg>
