<?xml version="1.0" standalone="no"?>
<!DOCTYPE svg PUBLIC "-//W3C//DTD SVG 20010904//EN"
 "http://www.w3.org/TR/2001/REC-SVG-20010904/DTD/svg10.dtd">
<svg version="1.0" xmlns="http://www.w3.org/2000/svg"
 width="500.000000pt" height="500.000000pt" viewBox="0 0 500.000000 500.000000"
 preserveAspectRatio="xMidYMid meet">

<g transform="translate(0.000000,500.000000) scale(0.100000,-0.100000)"
fill="#ffffff" stroke="none">
<path d="M530 4045 c-75 -24 -140 -82 -179 -158 -30 -59 -34 -75 -34 -142 1
-95 32 -164 104 -229 99 -89 -99 -81 2089 -81 l1935 0 63 29 c73 34 124 86
159 163 21 46 25 66 21 131 -6 124 -61 212 -171 270 l-52 27 -1945 2 c-1653 1
-1952 0 -1990 -12z"/>
<path d="M555 2801 c-91 -22 -172 -91 -213 -179 -33 -72 -35 -176 -4 -245 28
-64 94 -132 161 -164 l56 -28 1940 0 c2186 0 1994 -7 2091 78 93 82 129 220
88 341 -22 64 -100 147 -166 177 l-53 24 -1935 2 c-1064 0 -1948 -2 -1965 -6z"/>
<path d="M557 1549 c-236 -56 -322 -352 -151 -523 22 -21 64 -51 94 -65 l55
-26 1950 0 1950 0 57 28 c188 93 238 334 100 488 -24 27 -68 60 -100 76 l-57
28 -1930 2 c-1105 0 -1946 -3 -1968 -8z"/>
</g>
</svg>
