<?xml version="1.0" standalone="no"?>
<!DOCTYPE svg PUBLIC "-//W3C//DTD SVG 20010904//EN"
 "http://www.w3.org/TR/2001/REC-SVG-20010904/DTD/svg10.dtd">
<svg version="1.0" xmlns="http://www.w3.org/2000/svg"
 width="900.000000pt" height="512.000000pt" viewBox="0 0 900.000000 512.000000"
 preserveAspectRatio="xMidYMid meet">

<g transform="translate(0.000000,512.000000) scale(0.100000,-0.100000)"
fill="#ffffff" stroke="none">
<path d="M2246 4360 c-313 -100 -406 -512 -165 -734 33 -30 475 -319 1104
-721 577 -368 1071 -682 1097 -698 119 -68 277 -75 401 -17 81 38 2172 1380
2229 1430 211 187 186 530 -49 686 -132 87 -308 99 -444 28 -19 -9 -456 -286
-971 -615 -515 -330 -942 -599 -948 -599 -6 0 -433 269 -948 599 -515 329
-952 606 -971 615 -95 49 -230 60 -335 26z"/>
<path d="M2273 2955 c-81 -22 -143 -58 -201 -115 -185 -186 -167 -495 39 -654
74 -57 2160 -1387 2219 -1415 49 -23 68 -25 170 -25 137 0 155 7 350 131 1448
925 2003 1281 2038 1308 125 97 186 250 162 409 -27 180 -149 315 -327 361
-107 28 -202 16 -309 -38 -27 -14 -469 -293 -981 -621 l-933 -595 -932 595
c-512 328 -954 607 -981 621 -107 54 -208 66 -314 38z"/>
</g>
</svg>
